<svg width="608" height="608" viewBox="0 0 608 608" fill="none"
    xmlns="http://www.w3.org/2000/svg">
    <circle cx="304" cy="304" r="304" fill="white"/>
    <g clip-path="url(#clip0_0_1)">
        <path d="M429.132 351.696L422.619 356.429L460.376 408.519L466.89 403.786L429.132 351.696Z" fill="#0E4366"/>
        <path d="M166.648 95H158.599V241.43H166.648V95Z" fill="#ADC8D4"/>
        <path d="M117.959 166.408H109.91V505.091H117.959V166.408Z" fill="#ADC8D4"/>
        <path d="M490.154 95H482.105V417.611H490.154V95Z" fill="#ADC8D4"/>
        <path d="M412.92 95H404.871V170.44H412.92V95Z" fill="#ADC8D4"/>
        <path d="M412.92 409.553H404.871V507.005H412.92V409.553Z" fill="#ADC8D4"/>
        <path d="M490.154 469.096H482.105V507H490.154V469.096Z" fill="#ADC8D4"/>
        <path d="M291.197 440.989H283.148V481.37H291.197V440.989Z" fill="#ADC8D4"/>
        <path d="M384.209 417.606V409.548H182.754V417.606H384.209Z" fill="#ADC8D4"/>
        <path d="M322.196 435.158V427.1H245.375V435.158H322.196Z" fill="#ADC8D4"/>
        <path d="M524 485.397V477.338H283.144V485.397H524Z" fill="#ADC8D4"/>
        <path d="M178.24 317.578V309.519H77.9999V317.578H178.24Z" fill="#ADC8D4"/>
        <path d="M164.249 454.105V446.047H78.0001V454.105H164.249Z" fill="#ADC8D4"/>
        <path d="M283.379 502.476L288.441 496.211L221.385 441.902L216.323 448.167L283.379 502.476Z" fill="#ADC8D4"/>
        <path d="M484.826 218.91L489.106 212.086L328.659 111.198L324.379 118.022L484.826 218.91Z" fill="#ADC8D4"/>
        <path d="M491.169 417.631L488.566 410.005L361.545 453.473L364.148 461.098L491.169 417.631Z" fill="#ADC8D4"/>
        <path d="M212.927 170.44V162.382H113.907V170.44H212.927Z" fill="#ADC8D4"/>
        <path d="M524.005 170.44V162.382H404.876V170.44H524.005Z" fill="#ADC8D4"/>
        <path d="M408.898 187.867C420.734 187.867 430.33 178.26 430.33 166.408C430.33 154.557 420.734 144.95 408.898 144.95C397.061 144.95 387.465 154.557 387.465 166.408C387.465 178.26 397.061 187.867 408.898 187.867Z" fill="#ADC8D4"/>
        <path d="M113.902 187.867C125.739 187.867 135.335 178.26 135.335 166.408C135.335 154.557 125.739 144.95 113.902 144.95C102.065 144.95 92.4692 154.557 92.4692 166.408C92.4692 178.26 102.065 187.867 113.902 187.867Z" fill="#ADC8D4"/>
        <path d="M477.511 442.474C489.348 442.474 498.944 432.866 498.944 421.015C498.944 409.163 489.348 399.556 477.511 399.556C465.674 399.556 456.079 409.163 456.079 421.015C456.079 432.866 465.674 442.474 477.511 442.474Z" fill="#ADC8D4"/>
        <path d="M523.771 317.578V309.519H439.703V317.578H523.771Z" fill="#ADC8D4"/>
        <path d="M296.708 117.724L292.439 110.893L109.921 225.215L114.189 232.047L296.708 117.724Z" fill="#0E4366"/>
        <path d="M117.929 225.194H109.88V362.449H117.929V225.194Z" fill="#0E4366"/>
        <path d="M119.129 354.833L113.903 360.961L218.161 450.083L223.387 443.955L119.129 354.833Z" fill="#0E4366"/>
        <path d="M420.955 342.008L427.855 346.156L489.424 243.482L482.524 239.334L420.955 342.008Z" fill="#0E4366"/>
        <path d="M283.782 484.027L287.93 490.933L345.383 456.342L341.235 449.437L283.782 484.027Z" fill="#0E4366"/>
        <path d="M354.997 464.581C364.883 464.581 372.896 456.557 372.896 446.66C372.896 436.763 364.883 428.739 354.997 428.739C345.112 428.739 337.099 436.763 337.099 446.66C337.099 456.557 345.112 464.581 354.997 464.581Z" fill="#0E4366"/>
        <path d="M281.173 506.626C289.557 506.626 296.354 499.821 296.354 491.427C296.354 483.032 289.557 476.227 281.173 476.227C272.788 476.227 265.992 483.032 265.992 491.427C265.992 499.821 272.788 506.626 281.173 506.626Z" fill="#0E4366"/>
        <path d="M217.756 464.576C226.14 464.576 232.937 457.77 232.937 449.376C232.937 440.981 226.14 434.176 217.756 434.176C209.372 434.176 202.575 440.981 202.575 449.376C202.575 457.77 209.372 464.576 217.756 464.576Z" fill="#0E4366"/>
        <path d="M112.588 375.202C122.473 375.202 130.487 367.178 130.487 357.281C130.487 347.384 122.473 339.36 112.588 339.36C102.703 339.36 94.6895 347.384 94.6895 357.281C94.6895 367.178 102.703 375.202 112.588 375.202Z" fill="#0E4366"/>
        <path d="M301.003 128.828C309.387 128.828 316.184 122.023 316.184 113.628C316.184 105.234 309.387 98.4286 301.003 98.4286C292.619 98.4286 285.822 105.234 285.822 113.628C285.822 122.023 292.619 128.828 301.003 128.828Z" fill="#0E4366"/>
        <path d="M489.178 246.433C498.475 246.433 506.012 238.887 506.012 229.579C506.012 220.271 498.475 212.725 489.178 212.725C479.881 212.725 472.345 220.271 472.345 229.579C472.345 238.887 479.881 246.433 489.178 246.433Z" fill="#0E4366"/>
        <path d="M301.003 158.779L227.76 204.213H374.24L301.003 158.779Z" fill="#0E4366"/>
        <path d="M357.496 241.43V211.793H242.906V241.43H158.594V399.556H439.817V241.43H357.491H357.496ZM202.156 377.379H184.885V336.176H202.156V377.379ZM202.156 312.694H184.885V271.49H202.156V312.694ZM236.705 377.379H219.433V336.176H236.705V377.379ZM236.705 312.694H219.433V271.49H236.705V312.694ZM309.818 278.537V325.073H292.546V278.537C292.546 274.645 295.697 271.49 299.584 271.49H302.785C306.672 271.49 309.823 274.645 309.823 278.537H309.818ZM270.232 389.843H252.961V271.49H270.232V389.843ZM313.247 389.843H288.29V355.198C288.29 348.296 293.875 342.704 300.769 342.704C307.662 342.704 313.247 348.296 313.247 355.198V389.843ZM349.408 389.843H332.136V271.49H349.408V389.843ZM383.697 377.379H366.426V336.176H383.697V377.379ZM383.697 312.694H366.426V271.49H383.697V312.694ZM418.245 351.271H400.974V336.181H418.245V351.271ZM418.245 312.694H400.974V271.49H418.245V312.694ZM439.703 367.248L431.097 355.372V340.646L439.703 326.294V367.243V367.248Z" fill="#0E4366"/>
    </g>
    <defs>
        <clipPath id="clip0_0_1">
            <rect width="446" height="412" fill="white" transform="translate(78 95)"/>
        </clipPath>
    </defs>
</svg>
