<svg width="446" height="412" viewBox="0 0 446 412" fill="none"
    xmlns="http://www.w3.org/2000/svg">
    <g clip-path="url(#clip0_0_1)">
        <path d="M351.132 256.696L344.619 261.429L382.376 313.519L388.89 308.786L351.132 256.696Z" fill="#0E4366"/>
        <path d="M88.6476 0H80.5991V146.43H88.6476V0Z" fill="#ADC8D4"/>
        <path d="M39.9586 71.4084H31.9102V410.091H39.9586V71.4084Z" fill="#ADC8D4"/>
        <path d="M412.154 0H404.105V322.611H412.154V0Z" fill="#ADC8D4"/>
        <path d="M334.92 0H326.871V75.4401H334.92V0Z" fill="#ADC8D4"/>
        <path d="M334.92 314.553H326.871V412.005H334.92V314.553Z" fill="#ADC8D4"/>
        <path d="M412.154 374.096H404.105V412H412.154V374.096Z" fill="#ADC8D4"/>
        <path d="M213.197 345.989H205.148V386.37H213.197V345.989Z" fill="#ADC8D4"/>
        <path d="M306.209 322.606V314.548H104.754V322.606H306.209Z" fill="#ADC8D4"/>
        <path d="M244.196 340.158V332.1H167.375V340.158H244.196Z" fill="#ADC8D4"/>
        <path d="M446 390.397V382.338H205.144V390.397H446Z" fill="#ADC8D4"/>
        <path d="M100.24 222.578V214.519H-0.00012207V222.578H100.24Z" fill="#ADC8D4"/>
        <path d="M86.2485 359.105V351.047H0.000114441V359.105H86.2485Z" fill="#ADC8D4"/>
        <path d="M205.379 407.476L210.441 401.211L143.385 346.902L138.323 353.167L205.379 407.476Z" fill="#ADC8D4"/>
        <path d="M406.826 123.91L411.106 117.086L250.659 16.1976L246.379 23.0218L406.826 123.91Z" fill="#ADC8D4"/>
        <path d="M413.169 322.631L410.566 315.005L283.545 358.473L286.148 366.099L413.169 322.631Z" fill="#ADC8D4"/>
        <path d="M134.927 75.44V67.3817H35.9068V75.44H134.927Z" fill="#ADC8D4"/>
        <path d="M446.005 75.44V67.3817L326.876 67.3817V75.44H446.005Z" fill="#ADC8D4"/>
        <path d="M330.898 92.8673C342.734 92.8673 352.33 83.2598 352.33 71.4084C352.33 59.5569 342.734 49.9495 330.898 49.9495C319.061 49.9495 309.465 59.5569 309.465 71.4084C309.465 83.2598 319.061 92.8673 330.898 92.8673Z" fill="#ADC8D4"/>
        <path d="M35.9019 92.8673C47.7389 92.8673 57.3346 83.2598 57.3346 71.4084C57.3346 59.5569 47.7389 49.9495 35.9019 49.9495C24.065 49.9495 14.4692 59.5569 14.4692 71.4084C14.4692 83.2598 24.065 92.8673 35.9019 92.8673Z" fill="#ADC8D4"/>
        <path d="M399.511 347.474C411.348 347.474 420.944 337.866 420.944 326.015C420.944 314.164 411.348 304.556 399.511 304.556C387.674 304.556 378.079 314.164 378.079 326.015C378.079 337.866 387.674 347.474 399.511 347.474Z" fill="#ADC8D4"/>
        <path d="M445.771 222.578V214.519H361.703V222.578H445.771Z" fill="#ADC8D4"/>
        <path d="M218.708 22.724L214.439 15.8925L31.9208 130.215L36.1894 137.047L218.708 22.724Z" fill="#0E4366"/>
        <path d="M39.9288 130.194H31.8804V267.449H39.9288V130.194Z" fill="#0E4366"/>
        <path d="M41.1288 259.833L35.9028 265.961L140.161 355.083L145.387 348.955L41.1288 259.833Z" fill="#0E4366"/>
        <path d="M342.955 247.008L349.855 251.156L411.424 148.482L404.524 144.334L342.955 247.008Z" fill="#0E4366"/>
        <path d="M205.782 389.027L209.93 395.933L267.383 361.342L263.235 354.437L205.782 389.027Z" fill="#0E4366"/>
        <path d="M276.997 369.581C286.883 369.581 294.896 361.557 294.896 351.66C294.896 341.763 286.883 333.739 276.997 333.739C267.112 333.739 259.099 341.763 259.099 351.66C259.099 361.557 267.112 369.581 276.997 369.581Z" fill="#0E4366"/>
        <path d="M203.173 411.626C211.557 411.626 218.354 404.821 218.354 396.427C218.354 388.032 211.557 381.227 203.173 381.227C194.788 381.227 187.992 388.032 187.992 396.427C187.992 404.821 194.788 411.626 203.173 411.626Z" fill="#0E4366"/>
        <path d="M139.756 369.575C148.14 369.575 154.937 362.77 154.937 354.376C154.937 345.981 148.14 339.176 139.756 339.176C131.372 339.176 124.575 345.981 124.575 354.376C124.575 362.77 131.372 369.575 139.756 369.575Z" fill="#0E4366"/>
        <path d="M34.5882 280.202C44.4734 280.202 52.4869 272.178 52.4869 262.281C52.4869 252.384 44.4734 244.36 34.5882 244.36C24.703 244.36 16.6895 252.384 16.6895 262.281C16.6895 272.178 24.703 280.202 34.5882 280.202Z" fill="#0E4366"/>
        <path d="M223.003 33.8279C231.387 33.8279 238.184 27.0228 238.184 18.6282C238.184 10.2337 231.387 3.42859 223.003 3.42859C214.619 3.42859 207.822 10.2337 207.822 18.6282C207.822 27.0228 214.619 33.8279 223.003 33.8279Z" fill="#0E4366"/>
        <path d="M411.178 151.433C420.475 151.433 428.012 143.887 428.012 134.579C428.012 125.271 420.475 117.725 411.178 117.725C401.881 117.725 394.345 125.271 394.345 134.579C394.345 143.887 401.881 151.433 411.178 151.433Z" fill="#0E4366"/>
        <path d="M223.003 63.7787L149.76 109.213H296.24L223.003 63.7787Z" fill="#0E4366"/>
        <path d="M279.496 146.43V116.793H164.906V146.43H80.5942V304.556H361.817V146.43H279.491H279.496ZM124.156 282.38H106.885V241.176H124.156V282.38ZM124.156 217.694H106.885V176.49H124.156V217.694ZM158.705 282.38H141.433V241.176H158.705V282.38ZM158.705 217.694H141.433V176.49H158.705V217.694ZM231.818 183.537V230.073H214.546V183.537C214.546 179.645 217.697 176.49 221.584 176.49H224.785C228.672 176.49 231.823 179.645 231.823 183.537H231.818ZM192.232 294.843H174.961V176.49H192.232V294.843ZM235.247 294.843H210.29V260.198C210.29 253.296 215.875 247.704 222.769 247.704C229.662 247.704 235.247 253.296 235.247 260.198V294.843ZM271.408 294.843H254.136V176.49H271.408V294.843ZM305.697 282.38H288.426V241.176H305.697V282.38ZM305.697 217.694H288.426V176.49H305.697V217.694ZM340.245 256.271H322.974V241.181H340.245V256.271ZM340.245 217.694H322.974V176.49H340.245V217.694ZM361.703 272.248L353.097 260.372V245.646L361.703 231.294V272.243V272.248Z" fill="#0E4366"/>
    </g>
    <g clip-path="url(#clip1_0_1)">
        <path d="M351.132 256.696L344.619 261.429L382.376 313.519L388.89 308.786L351.132 256.696Z" fill="#0E4366"/>
        <path d="M88.6476 0H80.5991V146.43H88.6476V0Z" fill="#ADC8D4"/>
        <path d="M39.9586 71.4084H31.9102V410.091H39.9586V71.4084Z" fill="#ADC8D4"/>
        <path d="M412.154 0H404.105V322.611H412.154V0Z" fill="#ADC8D4"/>
        <path d="M334.92 0H326.871V75.4401H334.92V0Z" fill="#ADC8D4"/>
        <path d="M334.92 314.553H326.871V412.005H334.92V314.553Z" fill="#ADC8D4"/>
        <path d="M412.154 374.096H404.105V412H412.154V374.096Z" fill="#ADC8D4"/>
        <path d="M213.197 345.989H205.148V386.37H213.197V345.989Z" fill="#ADC8D4"/>
        <path d="M306.209 322.606V314.548H104.754V322.606H306.209Z" fill="#ADC8D4"/>
        <path d="M244.196 340.158V332.1H167.375V340.158H244.196Z" fill="#ADC8D4"/>
        <path d="M446 390.397V382.338H205.144V390.397H446Z" fill="#ADC8D4"/>
        <path d="M100.24 222.578V214.519H-0.00012207V222.578H100.24Z" fill="#ADC8D4"/>
        <path d="M86.2485 359.105V351.047H0.000114441V359.105H86.2485Z" fill="#ADC8D4"/>
        <path d="M205.379 407.476L210.441 401.211L143.385 346.902L138.323 353.167L205.379 407.476Z" fill="#ADC8D4"/>
        <path d="M406.826 123.91L411.106 117.086L250.659 16.1976L246.379 23.0218L406.826 123.91Z" fill="#ADC8D4"/>
        <path d="M413.169 322.631L410.566 315.005L283.545 358.473L286.148 366.099L413.169 322.631Z" fill="#ADC8D4"/>
        <path d="M134.927 75.44V67.3817H35.9068V75.44H134.927Z" fill="#ADC8D4"/>
        <path d="M446.005 75.44V67.3817L326.876 67.3817V75.44H446.005Z" fill="#ADC8D4"/>
        <path d="M330.898 92.8673C342.734 92.8673 352.33 83.2598 352.33 71.4084C352.33 59.5569 342.734 49.9495 330.898 49.9495C319.061 49.9495 309.465 59.5569 309.465 71.4084C309.465 83.2598 319.061 92.8673 330.898 92.8673Z" fill="#ADC8D4"/>
        <path d="M35.9019 92.8673C47.7389 92.8673 57.3346 83.2598 57.3346 71.4084C57.3346 59.5569 47.7389 49.9495 35.9019 49.9495C24.065 49.9495 14.4692 59.5569 14.4692 71.4084C14.4692 83.2598 24.065 92.8673 35.9019 92.8673Z" fill="#ADC8D4"/>
        <path d="M399.511 347.474C411.348 347.474 420.944 337.866 420.944 326.015C420.944 314.164 411.348 304.556 399.511 304.556C387.674 304.556 378.079 314.164 378.079 326.015C378.079 337.866 387.674 347.474 399.511 347.474Z" fill="#ADC8D4"/>
        <path d="M445.771 222.578V214.519H361.703V222.578H445.771Z" fill="#ADC8D4"/>
        <path d="M218.708 22.724L214.439 15.8925L31.9208 130.215L36.1894 137.047L218.708 22.724Z" fill="#0E4366"/>
        <path d="M39.9288 130.194H31.8804V267.449H39.9288V130.194Z" fill="#0E4366"/>
        <path d="M41.1288 259.833L35.9028 265.961L140.161 355.083L145.387 348.955L41.1288 259.833Z" fill="#0E4366"/>
        <path d="M342.955 247.008L349.855 251.156L411.424 148.482L404.524 144.334L342.955 247.008Z" fill="#0E4366"/>
        <path d="M205.782 389.027L209.93 395.933L267.383 361.342L263.235 354.437L205.782 389.027Z" fill="#0E4366"/>
        <path d="M276.997 369.581C286.883 369.581 294.896 361.557 294.896 351.66C294.896 341.763 286.883 333.739 276.997 333.739C267.112 333.739 259.099 341.763 259.099 351.66C259.099 361.557 267.112 369.581 276.997 369.581Z" fill="#0E4366"/>
        <path d="M203.173 411.626C211.557 411.626 218.354 404.821 218.354 396.427C218.354 388.032 211.557 381.227 203.173 381.227C194.788 381.227 187.992 388.032 187.992 396.427C187.992 404.821 194.788 411.626 203.173 411.626Z" fill="#0E4366"/>
        <path d="M139.756 369.575C148.14 369.575 154.937 362.77 154.937 354.376C154.937 345.981 148.14 339.176 139.756 339.176C131.372 339.176 124.575 345.981 124.575 354.376C124.575 362.77 131.372 369.575 139.756 369.575Z" fill="#0E4366"/>
        <path d="M34.5882 280.202C44.4734 280.202 52.4869 272.178 52.4869 262.281C52.4869 252.384 44.4734 244.36 34.5882 244.36C24.703 244.36 16.6895 252.384 16.6895 262.281C16.6895 272.178 24.703 280.202 34.5882 280.202Z" fill="#0E4366"/>
        <path d="M223.003 33.8279C231.387 33.8279 238.184 27.0228 238.184 18.6282C238.184 10.2337 231.387 3.42859 223.003 3.42859C214.619 3.42859 207.822 10.2337 207.822 18.6282C207.822 27.0228 214.619 33.8279 223.003 33.8279Z" fill="#0E4366"/>
        <path d="M411.178 151.433C420.475 151.433 428.012 143.887 428.012 134.579C428.012 125.271 420.475 117.725 411.178 117.725C401.881 117.725 394.345 125.271 394.345 134.579C394.345 143.887 401.881 151.433 411.178 151.433Z" fill="#0E4366"/>
        <path d="M223.003 63.7787L149.76 109.213H296.24L223.003 63.7787Z" fill="#0E4366"/>
        <path d="M279.496 146.43V116.793H164.906V146.43H80.5942V304.556H361.817V146.43H279.491H279.496ZM124.156 282.38H106.885V241.176H124.156V282.38ZM124.156 217.694H106.885V176.49H124.156V217.694ZM158.705 282.38H141.433V241.176H158.705V282.38ZM158.705 217.694H141.433V176.49H158.705V217.694ZM231.818 183.537V230.073H214.546V183.537C214.546 179.645 217.697 176.49 221.584 176.49H224.785C228.672 176.49 231.823 179.645 231.823 183.537H231.818ZM192.232 294.843H174.961V176.49H192.232V294.843ZM235.247 294.843H210.29V260.198C210.29 253.296 215.875 247.704 222.769 247.704C229.662 247.704 235.247 253.296 235.247 260.198V294.843ZM271.408 294.843H254.136V176.49H271.408V294.843ZM305.697 282.38H288.426V241.176H305.697V282.38ZM305.697 217.694H288.426V176.49H305.697V217.694ZM340.245 256.271H322.974V241.181H340.245V256.271ZM340.245 217.694H322.974V176.49H340.245V217.694ZM361.703 272.248L353.097 260.372V245.646L361.703 231.294V272.243V272.248Z" fill="#0E4366"/>
    </g>
    <defs>
        <clipPath id="clip0_0_1">
            <rect width="446" height="412" fill="white"/>
        </clipPath>
        <clipPath id="clip1_0_1">
            <rect width="446" height="412" fill="white"/>
        </clipPath>
    </defs>
</svg>
